<svg xmlns="http://www.w3.org/2000/svg" viewBox="0 0 102 101"><defs><style>.faa5a127-7c25-44b5-8b70-98184c01a948{fill:#292929;}.ae34ce9c-3aac-4549-90b1-947cc35f3a8b{fill:#fff;}</style></defs><g id="e24f7ae6-65f8-47c1-b185-10829f697b34" data-name="Ebene 2"><g id="a8c39869-debe-4e8c-ae0e-469660dbd875" data-name="Ebene 1"><ellipse id="b714f68d-5e4e-401e-b278-3abda0110c9e" data-name="Ellipse 11" class="faa5a127-7c25-44b5-8b70-98184c01a948" cx="51" cy="50.5" rx="51" ry="50.5"/><g id="f25ff967-2825-4de0-9038-ee0a7573640c" data-name="download"><path id="f3c988fe-78ec-4c8f-ab3a-341af97e2d50" data-name="Pfad 9" class="ae34ce9c-3aac-4549-90b1-947cc35f3a8b" d="M66.8,41.91H61.34V24.73A3.44,3.44,0,0,0,57.9,21.3H44.16a3.44,3.44,0,0,0-3.44,3.43V41.91H35.26a3.45,3.45,0,0,0-2.44,5.88L48.59,63.56a3.43,3.43,0,0,0,4.84,0h0L69.2,47.79a3.44,3.44,0,0,0-2.4-5.88ZM27,76.27a3.44,3.44,0,0,0,3.44,3.43H71.64a3.44,3.44,0,0,0,0-6.87H30.42A3.45,3.45,0,0,0,27,76.27Z"/></g></g></g></svg>