<svg xmlns="http://www.w3.org/2000/svg" viewBox="0 0 100.35 100.35"><defs><style>.a{fill:#393939;}.b{fill:#fff;}</style></defs><circle class="a" cx="50.17" cy="50.17" r="50.17"/><path class="b" d="M50.17,28.29v7a2.1,2.1,0,0,0,2.28,1.89,2.16,2.16,0,0,0,1.25-.57L64.26,26.09a1.65,1.65,0,0,0,.33-2.31,1.48,1.48,0,0,0-.33-.33L53.7,12.88c-1.77-1.76-3.53-.88-3.53.88v7a30.8,30.8,0,0,0-30.8,30.36,30.52,30.52,0,0,0,2.2,11c1.32,2.64,4.4,3.52,6.16,1.32a3.51,3.51,0,0,0,.88-4,17.63,17.63,0,0,1-1.32-8.37A23,23,0,0,1,50.17,28.29Zm22,10.56a3.51,3.51,0,0,0-.88,4,18.54,18.54,0,0,1,1.32,8.36A22.73,22.73,0,0,1,50.05,74.06h-.31v-6.6a2.1,2.1,0,0,0-2.28-1.89,2.16,2.16,0,0,0-1.25.57L35.65,76.7A1.65,1.65,0,0,0,35.32,79a1.29,1.29,0,0,0,.33.33L46.21,89.9a2,2,0,0,0,3.52-1.32v-7A30.44,30.44,0,0,0,80.11,51.17a30.74,30.74,0,0,0-2.21-11,3.23,3.23,0,0,0-5.72-1.32Z"/></svg>