<?xml version="1.0" encoding="utf-8"?>
<!-- Generator: Adobe Illustrator 24.2.0, SVG Export Plug-In . SVG Version: 6.00 Build 0)  -->
<svg version="1.1" id="Ebene_1" xmlns="http://www.w3.org/2000/svg" xmlns:xlink="http://www.w3.org/1999/xlink" x="0px" y="0px"
	 viewBox="0 0 102 101" style="enable-background:new 0 0 102 101;" xml:space="preserve">
<style type="text/css">
	.st0{fill:#282828;}
	.st1{fill:#FFFFFF;}
</style>
<g>
	<g id="bb4f8c91-a67b-4b5f-8b8d-10a60f18869a">
		<g id="fc9febf0-13f1-4df3-847c-3738c216880d">
			<ellipse id="a79e3b5c-b7ca-4345-a71b-2babe9dcd2e0" class="st0" cx="51.2" cy="50.4" rx="51" ry="50.5"/>
		</g>
	</g>
</g>
<g>
	<path class="st1" d="M67.5,79.2H34.9c-6.9,0-12.5-5.6-12.5-12.5V34.1c0-6.9,5.6-12.5,12.5-12.5h32.6c6.9,0,12.5,5.6,12.5,12.5v32.6
		C80,73.6,74.4,79.2,67.5,79.2z"/>
	<path class="st0" d="M69.1,74.3L69.1,74.3c0.8,0,1.5-0.7,1.5-1.5v-45c0-0.8-0.7-1.5-1.5-1.5l0,0c-0.8,0-1.5,0.7-1.5,1.5v45
		C67.6,73.7,68.3,74.3,69.1,74.3z"/>
	<circle class="st0" cx="69.1" cy="41.7" r="4.6"/>
	<path class="st0" d="M52,74.3L52,74.3c0.8,0,1.5-0.7,1.5-1.5v-45c0-0.8-0.7-1.5-1.5-1.5h0c-0.8,0-1.5,0.7-1.5,1.5v45
		C50.5,73.7,51.2,74.3,52,74.3z"/>
	<circle class="st0" cx="52" cy="64.7" r="4.6"/>
	<path class="st0" d="M33.3,74.3L33.3,74.3c0.8,0,1.5-0.7,1.5-1.5v-45c0-0.8-0.7-1.5-1.5-1.5l0,0c-0.8,0-1.5,0.7-1.5,1.5v45
		C31.8,73.7,32.4,74.3,33.3,74.3z"/>
	<circle class="st0" cx="33.3" cy="52.5" r="4.6"/>
</g>
</svg>
