<?xml version="1.0" encoding="utf-8"?>
<!-- Generator: Adobe Illustrator 24.2.0, SVG Export Plug-In . SVG Version: 6.00 Build 0)  -->
<svg version="1.1" id="Ebene_1" xmlns="http://www.w3.org/2000/svg" xmlns:xlink="http://www.w3.org/1999/xlink" x="0px" y="0px"
	 viewBox="0 0 102 101" style="enable-background:new 0 0 102 101;" xml:space="preserve">
<style type="text/css">
	.st0{fill:#282828;}
	.st1{fill:#FFFFFF;}
</style>
<g>
	<g id="bb4f8c91-a67b-4b5f-8b8d-10a60f18869a">
		<g id="fc9febf0-13f1-4df3-847c-3738c216880d">
			<ellipse id="a79e3b5c-b7ca-4345-a71b-2babe9dcd2e0" class="st0" cx="51.2" cy="50.4" rx="51" ry="50.5"/>
		</g>
	</g>
	<path class="st1" d="M64.3,57.1H62l-0.8-0.8c2.9-3.4,4.7-7.8,4.7-12.6c0-10.7-8.6-19.3-19.3-19.3s-19.3,8.6-19.3,19.3
		S35.9,63,46.5,63c4.8,0,9.2-1.8,12.6-4.7l0.8,0.8v2.3l14.8,14.8l4.4-4.4L64.3,57.1z M46.5,57.1c-7.4,0-13.4-6-13.4-13.4
		s6-13.4,13.4-13.4s13.4,6,13.4,13.4S53.9,57.1,46.5,57.1z"/>
</g>
</svg>
