<svg xmlns="http://www.w3.org/2000/svg" viewBox="0 0 55.9 55.9"><defs><style>.a{fill:#fff;}.b{fill:#282828;}</style></defs><path class="a" d="M33.53,16.77a2.79,2.79,0,0,0-2.79,2.79V36.33a2.81,2.81,0,0,0,2.79,2.8h0a2.81,2.81,0,0,0,2.8-2.8V19.56A2.79,2.79,0,0,0,33.53,16.77Z"/><path class="a" d="M22.35,16.77a2.79,2.79,0,0,0-2.79,2.79V36.33a2.81,2.81,0,0,0,2.79,2.8h0a2.81,2.81,0,0,0,2.8-2.8V19.56A2.79,2.79,0,0,0,22.35,16.77Z"/><path class="b" d="M27.94,0a28,28,0,1,0,28,28A27.95,27.95,0,0,0,27.94,0Zm8.39,36.33a2.81,2.81,0,0,1-2.8,2.8h0a2.81,2.81,0,0,1-2.79-2.8V19.56a2.8,2.8,0,0,1,5.59,0Zm-11.18,0a2.81,2.81,0,0,1-2.8,2.8h0a2.81,2.81,0,0,1-2.79-2.8V19.56a2.8,2.8,0,0,1,5.59,0Z"/></svg>