<?xml version="1.0" encoding="utf-8"?>
<!-- Generator: Adobe Illustrator 24.1.0, SVG Export Plug-In . SVG Version: 6.00 Build 0)  -->
<svg version="1.1" id="Ebene_1" xmlns="http://www.w3.org/2000/svg" xmlns:xlink="http://www.w3.org/1999/xlink" x="0px" y="0px"
	 viewBox="0 0 62.6 62.6" style="enable-background:new 0 0 62.6 62.6;" xml:space="preserve">
<style type="text/css">
	.st0{fill:#FFFFFF;}
	.st1{fill:#282828;}
</style>
<g id="Ebene_2_1_">
	<g id="footre">
		<rect x="15.7" y="12.1" class="st0" width="39" height="39"/>
		<path id="play_circle_filled-24px-2" class="st1" d="M31.3,0C14,0,0,14,0,31.3s14,31.3,31.3,31.3s31.3-14,31.3-31.3S48.6,0,31.3,0
			L31.3,0z M25,42.3V20.4c0-0.9,0.7-1.6,1.6-1.6c0.3,0,0.7,0.1,0.9,0.3l14.6,11c0.7,0.5,0.8,1.5,0.3,2.2l0,0
			c-0.1,0.1-0.2,0.2-0.3,0.3l-14.6,11c-0.7,0.5-1.7,0.4-2.2-0.3l0,0C25.1,43,25,42.6,25,42.3z"/>
	</g>
</g>
</svg>
