<svg xmlns="http://www.w3.org/2000/svg" viewBox="0 0 60.8 60.64"><defs><style>.a{fill:#393939;}.b{fill:#fff;}</style></defs><path class="a" d="M30.4,0A30.4,30.4,0,0,1,60.8,30.4C59.2,70.73,1.6,70.71,0,30.4A30.4,30.4,0,0,1,30.4,0Z"/><path class="b" d="M20.27,20V35.73c-4.21-2.68-10,.33-10.94,5.07C8.07,51.49,23.7,52.62,24,41.87V23.73h3.73a3.73,3.73,0,1,0,0-7.46H24A3.64,3.64,0,0,0,20.27,20Z"/><path class="b" d="M40.27,14.93V30.67c-4.21-2.69-10,.32-10.94,5.06C28.07,46.42,43.7,47.55,44,36.8V18.4h3.73a3.65,3.65,0,0,0,3.74-3.73c0-2.14-1.87-3.47-4-3.47H43.73A3.59,3.59,0,0,0,40.27,14.93Z"/></svg>