<?xml version="1.0" encoding="utf-8"?>
<!-- Generator: Adobe Illustrator 24.1.0, SVG Export Plug-In . SVG Version: 6.00 Build 0)  -->
<svg version="1.1" id="Ebene_1" xmlns="http://www.w3.org/2000/svg" xmlns:xlink="http://www.w3.org/1999/xlink" x="0px" y="0px"
	 viewBox="0 0 60.8 60.6" style="enable-background:new 0 0 60.8 60.6;" xml:space="preserve">
<style type="text/css">
	.st0{fill:#282828;}
	.st1{fill:#FFFFFF;}
</style>
<path class="st0" d="M30.4,0c16.8,0,30.4,13.6,30.4,30.4l0,0C59.2,70.7,1.6,70.7,0,30.4C0,13.6,13.6,0,30.4,0C30.4,0,30.4,0,30.4,0z
	"/>
<path class="st1" d="M20.3,20v15.7c-4.2-2.7-10,0.3-10.9,5.1C8.1,51.5,23.7,52.6,24,41.9V23.7h3.7c2.1,0,3.7-1.7,3.7-3.7
	s-1.7-3.7-3.7-3.7c0,0,0,0,0,0H24c-2-0.1-3.7,1.5-3.7,3.5C20.3,19.9,20.3,19.9,20.3,20z"/>
<path class="st1" d="M40.3,14.9v15.7c-4.2-2.7-10,0.3-10.9,5.1C28.1,46.4,43.7,47.6,44,36.8V18.4h3.7c2,0.1,3.7-1.5,3.7-3.6
	c0-0.1,0-0.1,0-0.2c0-2.1-1.9-3.5-4-3.5h-3.7C41.7,11.3,40.2,12.9,40.3,14.9C40.3,14.9,40.3,14.9,40.3,14.9z"/>
</svg>
