<?xml version="1.0" encoding="utf-8"?>
<!-- Generator: Adobe Illustrator 24.2.0, SVG Export Plug-In . SVG Version: 6.00 Build 0)  -->
<svg version="1.1" id="Ebene_1" xmlns="http://www.w3.org/2000/svg" xmlns:xlink="http://www.w3.org/1999/xlink" x="0px" y="0px"
	 viewBox="0 0 102 101" style="enable-background:new 0 0 102 101;" xml:space="preserve">
<style type="text/css">
	.st0{fill:#282828;}
	.st1{fill:#FFFFFF;}
</style>
<g>
	<g id="ad48b53d-681e-41f4-891f-08cada3465c4">
		<g id="b5952801-0c9b-400b-b7ed-ad1f3e6e34cd">
			<ellipse id="ac0f3c55-8620-42ec-8b6b-17ee3b6979fd" class="st0" cx="51" cy="50.5" rx="51" ry="50.5"/>
		</g>
	</g>
	<path class="st1" d="M65.6,62.6c-2.2,0-4.2,0.9-5.7,2.3L38.9,52.7c0.1-0.7,0.3-1.3,0.3-2.1c0-0.7-0.1-1.4-0.3-2.1l20.7-12
		c1.6,1.5,3.7,2.4,6,2.4c4.9,0,8.8-3.9,8.8-8.8s-3.9-8.8-8.8-8.8s-8.8,3.9-8.8,8.8c0,0.7,0.1,1.4,0.3,2.1l-20.7,12
		c-1.6-1.5-3.7-2.4-6-2.4c-4.9,0-8.8,3.9-8.8,8.8s3.9,8.8,8.8,8.8c2.3,0,4.4-0.9,6-2.4l20.9,12.2c-0.1,0.6-0.2,1.3-0.2,1.9
		c0,4.7,3.8,8.6,8.6,8.6s8.6-3.8,8.6-8.6C74.1,66.4,70.3,62.6,65.6,62.6z"/>
</g>
</svg>
